<svg width="168" height="140" viewBox="0 0 168 140" fill="none" xmlns="http://www.w3.org/2000/svg">
<path d="M66.4842 5.02868C71.0722 -1.26403 80.293 -1.728 85.4895 4.07242L164.272 92.0103C171.334 99.8926 165.739 112.416 155.156 112.416L12.2604 112.416C2.25121 112.416 -3.52543 101.055 2.37123 92.9669L66.4842 5.02868ZM83.6662 5.70599C79.509 1.06562 72.1326 1.43678 68.4622 6.47108L4.34863 94.4091C-0.368423 100.879 4.25329 109.968 12.2606 109.968L155.156 109.969C163.623 109.969 168.098 99.9499 162.449 93.6441L83.6662 5.70599Z" fill="#616161"/>
<path d="M21.2263 53.7465C21.2263 49.4317 22.4029 45.775 24.756 42.7766C27.1827 39.705 30.3447 37.4013 34.2421 35.8655C38.213 34.2566 42.5516 33.4521 47.2579 33.4521C52.0377 33.4521 56.3763 34.2566 60.2737 35.8655C64.2446 37.4013 67.4067 39.705 69.7598 42.7766C72.1865 45.775 73.3998 49.4317 73.3998 53.7465C73.3998 57.2569 72.6277 60.3285 71.0834 62.9613C69.6127 65.5209 67.5905 67.6783 65.0168 69.4335C62.5165 71.1156 59.7222 72.3589 56.6337 73.1633C53.5452 73.9678 50.4199 74.37 47.2579 74.37C44.0959 74.37 40.9706 73.9678 37.8821 73.1633C34.7936 72.3589 31.9993 71.1156 29.4991 69.4335C26.9989 67.6783 24.9766 65.5209 23.4324 62.9613C21.9617 60.3285 21.2263 57.2569 21.2263 53.7465ZM38.7646 55.5017C38.7646 57.2569 39.1322 58.7927 39.8676 60.1091C40.6029 61.4255 41.5957 62.4493 42.8458 63.1807C44.1694 63.912 45.6401 64.2777 47.2579 64.2777C48.9492 64.2777 50.42 63.912 51.6701 63.1807C52.9937 62.4493 54.0232 61.4255 54.7585 60.1091C55.4939 58.7927 55.8616 57.2569 55.8616 55.5017C55.8616 53.8197 55.4939 52.3204 54.7585 51.004C54.0967 49.6145 53.104 48.5541 51.7804 47.8228C50.5303 47.0914 49.0228 46.7258 47.2579 46.7258C45.6401 46.7258 44.1694 47.0914 42.8458 47.8228C41.5222 48.5541 40.4927 49.6145 39.7573 51.004C39.0955 52.3204 38.7646 53.8197 38.7646 55.5017ZM18.4688 91.154C18.4688 87.1317 19.3512 83.6945 21.116 80.8423C22.8809 77.917 25.1972 75.5767 28.0651 73.8215C30.933 71.9932 34.0583 70.6768 37.4409 69.8723C40.8236 68.9947 44.0959 68.5559 47.2579 68.5559C50.4199 68.5559 53.6923 68.9947 57.0749 69.8723C60.4575 70.6768 63.5828 71.9932 66.4507 73.8215C69.3921 75.5767 71.7453 77.917 73.5101 80.8423C75.275 83.6945 76.1574 87.1317 76.1574 91.154C76.1574 94.6644 75.3853 97.8091 73.841 100.588C72.2968 103.367 70.1642 105.744 67.4434 107.719C64.7226 109.693 61.6341 111.192 58.1779 112.216C54.7218 113.24 51.0818 113.752 47.2579 113.752C43.5076 113.752 39.9044 113.24 36.4482 112.216C32.992 111.192 29.9035 109.693 27.1827 107.719C24.4619 105.744 22.3294 103.367 20.7851 100.588C19.2409 97.8091 18.4688 94.6644 18.4688 91.154ZM36.9997 88.3018C36.9997 90.569 37.4409 92.4704 38.3234 94.0062C39.2793 95.542 40.5294 96.7121 42.0737 97.5166C43.6914 98.321 45.4195 98.7233 47.2579 98.7233C49.1698 98.7233 50.8979 98.321 52.4422 97.5166C54.06 96.7121 55.3101 95.542 56.1925 94.0062C57.1484 92.4704 57.6264 90.569 57.6264 88.3018C57.6264 86.4735 57.1484 84.7915 56.1925 83.2557C55.3101 81.7199 54.06 80.5132 52.4422 79.6356C50.8979 78.758 49.1698 78.3192 47.2579 78.3192C45.4195 78.3192 43.6914 78.758 42.0737 79.6356C40.5294 80.5132 39.2793 81.7199 38.3234 83.2557C37.4409 84.7915 36.9997 86.4735 36.9997 88.3018Z" fill="white"/>
<path d="M113.788 57.7414C113.788 55.5024 113.289 53.5745 112.291 51.9575C111.356 50.2783 110.047 49.0033 108.364 48.1327C106.743 47.1998 104.903 46.7333 102.846 46.7333C100.726 46.7333 98.8247 47.1998 97.1414 48.1327C95.5204 49.0033 94.2111 50.2783 93.2136 51.9575C92.2784 53.5745 91.8109 55.5024 91.8109 57.7414C91.8109 59.9181 92.2784 61.846 93.2136 63.5252C94.2111 65.2044 95.5204 66.5105 97.1414 67.4433C98.8247 68.3762 100.726 68.8427 102.846 68.8427C104.903 68.8427 106.743 68.3762 108.364 67.4433C110.047 66.5105 111.356 65.2044 112.291 63.5252C113.289 61.846 113.788 59.9181 113.788 57.7414ZM102.939 99.8144H82.9266L104.155 76.2124L107.335 74.8131C105.589 76.4923 103.906 77.6118 102.285 78.1715C100.726 78.669 98.7624 78.9178 96.3932 78.9178C93.9618 78.9178 91.5303 78.4514 89.0988 77.5185C86.7297 76.5234 84.5788 75.1241 82.6461 73.3205C80.7134 71.4547 79.1548 69.2158 77.9702 66.6037C76.7856 63.9917 76.1934 61.0375 76.1934 57.7414C76.1934 52.3306 77.3779 47.8217 79.7471 44.2145C82.1785 40.6074 85.3893 37.902 89.3794 36.0985C93.4318 34.2327 97.9207 33.2998 102.846 33.2998C107.709 33.2998 112.135 34.2327 116.126 36.0985C120.178 37.902 123.389 40.6074 125.758 44.2145C128.189 47.8217 129.405 52.3306 129.405 57.7414C129.405 61.2241 128.657 64.4581 127.161 67.4433C125.727 70.4286 123.95 73.2272 121.83 75.8393L102.939 99.8144Z" fill="white"/>
<path d="M125.177 100.48L133.403 81.4036L134.999 83.9593H124.304L126.744 81.1906V87.2452H121.652V79.1826H139.127V82.9553L131.685 100.48H125.177Z" fill="white"/>
<path d="M115.77 96.6722C115.77 95.6129 116.12 94.7137 116.821 93.9746C117.546 93.2109 118.476 92.8291 119.612 92.8291C120.748 92.8291 121.667 93.2109 122.367 93.9746C123.068 94.7137 123.419 95.6129 123.419 96.6722C123.419 97.7068 123.068 98.606 122.367 99.3697C121.667 100.109 120.748 100.478 119.612 100.478C118.476 100.478 117.546 100.109 116.821 99.3697C116.12 98.606 115.77 97.7068 115.77 96.6722Z" fill="white"/>
<path d="M35.0793 123.972C36.8377 123.972 38.2062 124.497 39.1847 125.546C40.1773 126.581 40.6737 128.084 40.6737 130.056V139.16H36.462V130.183C36.462 129.29 36.228 128.616 35.76 128.162C35.292 127.694 34.6681 127.46 33.8881 127.46C33.0515 127.46 32.385 127.709 31.8886 128.205C31.4065 128.687 31.1654 129.417 31.1654 130.396V139.16H26.9537V130.183C26.9537 129.29 26.7339 128.616 26.2943 128.162C25.8689 127.694 25.2804 127.46 24.5288 127.46C23.7205 127.46 23.0753 127.709 22.5931 128.205C22.111 128.687 21.8699 129.417 21.8699 130.396V139.16H17.6582V124.27H21.7423V125.929C22.1961 125.291 22.7775 124.809 23.4865 124.482C24.2097 124.142 25.0464 123.972 25.9965 123.972C26.975 123.972 27.8258 124.149 28.5491 124.504C29.2865 124.858 29.8821 125.376 30.3358 126.057C30.8464 125.376 31.5129 124.858 32.3353 124.504C33.1578 124.149 34.0725 123.972 35.0793 123.972Z" fill="white"/>
<path d="M58.1314 125.413V139.16H53.5409V137.79C52.6447 138.855 51.2921 139.388 49.483 139.388C48.2318 139.388 47.0905 139.101 46.0591 138.526C45.0447 137.934 44.2331 137.097 43.6244 136.015C43.0326 134.933 42.7367 133.682 42.7367 132.261C42.7367 130.841 43.0326 129.598 43.6244 128.533C44.2331 127.451 45.0447 126.622 46.0591 126.048C47.0905 125.473 48.2318 125.185 49.483 125.185C51.1061 125.185 52.3827 125.659 53.3126 126.605V125.413H58.1314ZM50.4974 135.558C51.3428 135.558 52.0361 135.271 52.5771 134.696C53.1182 134.104 53.3887 133.293 53.3887 132.261C53.3887 131.247 53.1182 130.452 52.5771 129.877C52.0361 129.302 51.3428 129.015 50.4974 129.015C49.6521 129.015 48.9588 129.302 48.4178 129.877C47.8767 130.452 47.6062 131.247 47.6062 132.261C47.6062 133.293 47.8767 134.104 48.4178 134.696C48.9588 135.271 49.6521 135.558 50.4974 135.558Z" fill="white"/>
<path d="M65.8239 127.062C66.3142 126.436 66.9483 125.971 67.7261 125.667C68.5207 125.346 69.4253 125.185 70.4398 125.185V129.522C70.0002 129.471 69.6366 129.446 69.3492 129.446C68.3178 129.446 67.5063 129.725 66.9145 130.283C66.3396 130.841 66.0522 131.695 66.0522 132.845V139.16H61.2334V125.413H65.8239V127.062Z" fill="white"/>
<path d="M86.8368 125.413V139.16H82.2463V137.79C81.3502 138.855 79.9975 139.388 78.1884 139.388C76.9372 139.388 75.7959 139.101 74.7646 138.526C73.7501 137.934 72.9385 137.097 72.3298 136.015C71.738 134.933 71.4422 133.682 71.4422 132.261C71.4422 130.841 71.738 129.598 72.3298 128.533C72.9385 127.451 73.7501 126.622 74.7646 126.048C75.7959 125.473 76.9372 125.185 78.1884 125.185C79.8116 125.185 81.0881 125.659 82.018 126.605V125.413H86.8368ZM79.2029 135.558C80.0483 135.558 80.7415 135.271 81.2825 134.696C81.8236 134.104 82.0941 133.293 82.0941 132.261C82.0941 131.247 81.8236 130.452 81.2825 129.877C80.7415 129.302 80.0483 129.015 79.2029 129.015C78.3575 129.015 77.6643 129.302 77.1232 129.877C76.5822 130.452 76.3116 131.247 76.3116 132.261C76.3116 133.293 76.5822 134.104 77.1232 134.696C77.6643 135.271 78.3575 135.558 79.2029 135.558Z" fill="white"/>
<path d="M104.42 125.413L98.7394 139.16H93.7685L88.1128 125.413H93.0584L96.3554 133.808L99.83 125.413H104.42Z" fill="white"/>
<path d="M105.666 125.413H110.485V139.16H105.666V125.413ZM108.076 123.892C107.196 123.892 106.486 123.647 105.945 123.156C105.404 122.666 105.134 122.057 105.134 121.33C105.134 120.603 105.404 119.994 105.945 119.504C106.486 119.014 107.196 118.769 108.076 118.769C108.955 118.769 109.665 119.005 110.206 119.479C110.747 119.935 111.018 120.527 111.018 121.254C111.018 122.015 110.747 122.649 110.206 123.156C109.665 123.647 108.955 123.892 108.076 123.892Z" fill="white"/>
<path d="M118.968 139.388C117.277 139.388 115.958 138.957 115.011 138.095C114.081 137.215 113.617 135.964 113.617 134.341V120.341H118.435V134.087C118.435 134.595 118.562 134.984 118.816 135.254C119.086 135.525 119.458 135.66 119.932 135.66C120.32 135.66 120.684 135.575 121.022 135.406L121.225 139.033C120.498 139.27 119.746 139.388 118.968 139.388Z" fill="white"/>
<path d="M131.907 125.185C133.614 125.185 134.984 125.692 136.015 126.707C137.063 127.721 137.588 129.252 137.588 131.298V139.16H132.769V132.084C132.769 130.207 132.016 129.269 130.512 129.269C129.683 129.269 129.015 129.539 128.508 130.08C128.018 130.621 127.773 131.433 127.773 132.515V139.16H122.954V120.341H127.773V126.682C128.297 126.191 128.914 125.819 129.624 125.566C130.334 125.312 131.095 125.185 131.907 125.185Z" fill="white"/>
<path d="M155.343 125.413V139.16H150.753V137.79C149.857 138.855 148.504 139.388 146.695 139.388C145.444 139.388 144.303 139.101 143.271 138.526C142.257 137.934 141.445 137.097 140.836 136.015C140.245 134.933 139.949 133.682 139.949 132.261C139.949 130.841 140.245 129.598 140.836 128.533C141.445 127.451 142.257 126.622 143.271 126.048C144.303 125.473 145.444 125.185 146.695 125.185C148.318 125.185 149.595 125.659 150.525 126.605V125.413H155.343ZM147.71 135.558C148.555 135.558 149.248 135.271 149.789 134.696C150.33 134.104 150.601 133.293 150.601 132.261C150.601 131.247 150.33 130.452 149.789 129.877C149.248 129.302 148.555 129.015 147.71 129.015C146.864 129.015 146.171 129.302 145.63 129.877C145.089 130.452 144.818 131.247 144.818 132.261C144.818 133.293 145.089 134.104 145.63 134.696C146.171 135.271 146.864 135.558 147.71 135.558Z" fill="white"/>
<path d="M139.315 94.2417V95.9976H142.845V97.7422H139.315V100.479H137.053V92.4971H143.324V94.2417H139.315Z" fill="white"/>
<path d="M151.602 100.479L151.579 96.2485L149.523 99.6921H148.518L146.473 96.3625V100.479H144.382V92.4971H146.244L149.055 97.1037L151.796 92.4971H153.659L153.681 100.479H151.602Z" fill="white"/>
</svg>
