<svg width="44" height="44" viewBox="0 0 44 44" fill="none" xmlns="http://www.w3.org/2000/svg">
<path d="M29.3091 39.5347V40.6813H28.5767V37.5338H30.9682V38.1183H29.3091V38.9502H30.7738V39.5347H29.3091Z" fill="white"/>
<path d="M31.464 37.5338V40.6813H32.1512V38.8329L33.078 40.3485H33.408L34.3397 38.7922L34.3438 40.6813H35.031L35.0219 37.5338H34.4207L33.2552 39.4882L32.0698 37.5338H31.464Z" fill="white"/>
<path fill-rule="evenodd" clip-rule="evenodd" d="M42.6667 12.2275C42.6674 12.1865 42.6678 12.1454 42.6678 12.1042C42.6678 9.66938 41.3577 7.47997 39.2721 5.96473C39.0357 2.63125 36.2418 0 32.83 0H10.8716C7.30471 0 4.41321 2.87584 4.41321 6.42336V9.81493C2.51354 11.3209 1.33643 13.412 1.33643 15.7235C1.33643 15.7645 1.3368 15.8054 1.33753 15.8462C1.3368 15.887 1.33643 15.9278 1.33643 15.9688C1.33643 18.3638 2.60013 20.5222 4.62191 22.0383C1.81327 23.8287 0 26.6598 0 29.8459C0 29.8868 0.000299192 29.9277 0.000895844 29.9685C0.000299192 30.0093 0 30.0502 0 30.0911C0 33.1986 1.72492 35.9684 4.41591 37.7643C4.51576 41.2251 7.36784 44 10.8716 44H32.83C36.3968 44 39.2883 41.1242 39.2883 37.5766V34.2764C42.1474 32.4956 44 29.643 44 26.4276C44 26.387 43.9997 26.3464 43.9991 26.3059C43.9997 26.2648 44 26.2236 44 26.1824C44 23.0065 42.1926 20.1844 39.3931 18.3996C41.4083 16.8882 42.6678 14.7368 42.6678 12.3494C42.6678 12.3087 42.6674 12.2681 42.6667 12.2275ZM32.83 1.17762H10.8716C7.95863 1.17762 5.59724 3.52621 5.59724 6.42336V9.00709C7.3076 8.00664 9.41463 7.41628 11.6936 7.41628C17.4137 7.41628 22.0507 11.1356 22.0507 15.7235C22.0507 15.7645 22.0503 15.8054 22.0496 15.8462C22.0503 15.887 22.0507 15.9278 22.0507 15.9688C22.0507 18.3639 20.787 20.5222 18.7652 22.0383C19.6078 22.5755 20.3609 23.2063 21.0023 23.9123C21.6357 21.6804 23.1824 19.7452 25.293 18.3995C23.2779 16.8882 22.0183 14.7368 22.0183 12.3494C22.0183 12.3082 22.0187 12.2671 22.0194 12.2261C22.0187 12.1855 22.0184 12.1449 22.0184 12.1042C22.0184 7.53059 26.6409 3.82294 32.3431 3.82294C34.409 3.82294 36.3333 4.30963 37.9473 5.14788C37.3744 2.86713 35.3006 1.17762 32.83 1.17762ZM23.0739 32.3542C25.2039 34.6915 28.5634 36.1995 32.343 36.1995C34.4386 36.1995 36.405 35.736 38.1043 34.9245V37.5766C38.1043 40.4738 35.7429 42.8224 32.83 42.8224H10.8716C8.27508 42.8224 6.11681 40.9563 5.67852 38.4991C7.43596 39.3845 9.49382 39.8937 11.6935 39.8937C17.2225 39.8937 21.8553 36.6769 23.0739 32.3542ZM28.6822 13.2203C28.7542 11.6307 30.2165 10.3619 32.0099 10.3619C33.8036 10.3619 35.2661 11.6311 35.3377 13.2208C35.2658 14.8104 33.8034 16.0792 32.01 16.0792C30.2163 16.0792 28.7538 14.8101 28.6822 13.2203ZM36.3375 24.9803C36.2638 27.0273 34.3545 28.6668 32.01 28.6668C29.6653 28.6668 27.7558 27.0269 27.6825 24.9796C27.7563 22.9326 29.6655 21.2932 32.01 21.2932C34.3548 21.2932 36.2642 22.933 36.3375 24.9803ZM11.3594 19.711C13.1587 19.711 14.6258 18.4378 14.6977 16.843C14.6258 15.2482 13.1587 13.975 11.3594 13.975C9.5601 13.975 8.09299 15.2482 8.02115 16.843C8.09299 18.4378 9.5601 19.711 11.3594 19.711ZM11.3595 24.9406C9.00735 24.9406 7.09192 26.5856 7.01835 28.6394C7.09192 30.6931 9.00735 32.3381 11.3595 32.3381C13.7116 32.3381 15.627 30.6931 15.7006 28.6394C15.627 26.5856 13.7116 24.9406 11.3595 24.9406Z" fill="white"/>
</svg>
